<svg xmlns="http://www.w3.org/2000/svg" width="53.957" height="75" viewBox="0 0 53.957 75">
  <g id="noun_release_1410037" transform="translate(-23.5 -13.5)">
    <g id="Group_88" data-name="Group 88" transform="translate(23.5 13.5)">
      <g id="Group_87" data-name="Group 87">
        <path id="Path_83" data-name="Path 83" d="M60.4,75.14a84.634,84.634,0,0,0,2.72-22.088A64.168,64.168,0,0,0,57.4,26.818C54.7,20.9,51.32,16.582,50.345,16.582S45.993,20.9,43.287,26.818a64.168,64.168,0,0,0-5.721,26.235,84.634,84.634,0,0,0,2.72,22.088ZM37.665,77.125A86.081,86.081,0,0,1,34.5,53.053a67.25,67.25,0,0,1,6-27.522C43.733,18.465,47.614,13.5,50.345,13.5s6.613,4.965,9.845,12.031a67.25,67.25,0,0,1,6,27.522,86.081,86.081,0,0,1-3.165,24.073l-.328,1.1h-24.7Z" transform="translate(-23.079 -13.5)" fill="#5c47f9"/>
        <path id="Path_84" data-name="Path 84" d="M58,82.325l-1.214-5.711H44.06l-1.214,5.711ZM41.538,73.5H59.3l2.538,11.94H39Z" transform="translate(-23.159 -11.892)" fill="#5c47f9"/>
        <path id="Path_85" data-name="Path 85" d="M50.249,50A6.749,6.749,0,1,1,57,43.249,6.749,6.749,0,0,1,50.249,50Zm0-3.115a3.634,3.634,0,1,0-3.634-3.634A3.634,3.634,0,0,0,50.249,46.883Z" transform="translate(-22.986 -12.884)" fill="#5c47f9"/>
        <path id="Path_86" data-name="Path 86" d="M35.085,85.57A1.557,1.557,0,0,1,32.216,86.6L23.73,72.774a1.557,1.557,0,0,1,.356-2.032l11.159-8.9a1.557,1.557,0,0,1,2.495.893L39.5,71.022a1.557,1.557,0,0,1-.511,1.507l-5.136,4.4Zm-4.433-9.053a1.557,1.557,0,0,1,.529-1.4l5.082-4.35-1.046-4.918L27.1,72.318l3.84,6.258Z" transform="translate(-23.5 -12.352)" fill="#5c47f9"/>
        <path id="Path_87" data-name="Path 87" d="M11.585,1.782A1.557,1.557,0,0,0,8.716.748L.23,14.578A1.557,1.557,0,0,0,.586,16.61l11.159,8.9a1.557,1.557,0,0,0,2.495-.893L16,16.33a1.557,1.557,0,0,0-.511-1.507l-5.136-4.4ZM7.152,10.835a1.557,1.557,0,0,0,.529,1.4l5.082,4.35-1.046,4.918L3.6,15.034l3.84-6.258Z" transform="translate(53.957 75) rotate(180)" fill="#5c47f9"/>
      </g>
    </g>
  </g>
</svg>
