<svg xmlns="http://www.w3.org/2000/svg" width="58.337" height="75" viewBox="0 0 58.337 75">
  <g id="noun_design_4157658" transform="translate(-11 -5.493)">
    <g id="_91_Design_Nib_Nib_Pen" data-name="91  Design, Nib, Nib Pen" transform="translate(11 5.493)">
      <path id="Path_60" data-name="Path 60" d="M65.17,63.839H59.294l7.07-11.806a1.389,1.389,0,0,0,0-1.389L41.363,6.2a1.389,1.389,0,0,0-2.417,0l-25,44.447a1.389,1.389,0,0,0,0,1.389l7.07,11.792H15.167A4.167,4.167,0,0,0,11,67.992v8.334a4.167,4.167,0,0,0,4.167,4.167h50a4.167,4.167,0,0,0,4.167-4.167V67.992a4.167,4.167,0,0,0-4.167-4.153Zm-25-22.223A4.167,4.167,0,1,1,36,45.783,4.167,4.167,0,0,1,40.168,41.616Zm-23.39,9.723,22-39.141V38.977a6.945,6.945,0,1,0,2.778,0V12.2l22,39.113-7.514,12.5H24.292Zm49.781,25a1.389,1.389,0,0,1-1.389,1.389h-50a1.389,1.389,0,0,1-1.389-1.389V68.006a1.389,1.389,0,0,1,1.389-1.389h50a1.389,1.389,0,0,1,1.389,1.389Z" transform="translate(-11 -5.493)" fill="#5c47f9"/>
    </g>
  </g>
</svg>
