<svg xmlns="http://www.w3.org/2000/svg" viewBox="0 0 45.82 45.63"><defs><style>.cls-1{fill:#5c46f9;}</style></defs><title>Phone</title><g id="Layer_2" data-name="Layer 2"><g id="Layer_1-2" data-name="Layer 1"><path class="cls-1" d="M9.44,0C3.28-.19-.69,7,.1,12.73c1.79,14.51,18.69,31,33,32.79,5.56.8,12.72-3.18,12.72-9.34a3.16,3.16,0,0,0-1-1.59s-7.36-4-8.75-5c-1.19-.79-1.19-.4-2,0-.79.2-4.17,4.57-5.17,5.17C25,37.18,8.45,20.68,10.84,16.7c.59-.79,5-4.37,5.36-5,.2-.79.6-.79-.2-2.18S11,1,11,1,10.84.4,9.44,0Z"/></g></g></svg>