<svg xmlns="http://www.w3.org/2000/svg" viewBox="0 0 634.37 648.06"><defs><style>.cls-1{fill:#9797ff;}.cls-2{fill:#8b87fe;}.cls-3{fill:#7f77fd;}.cls-4{fill:#7466fb;}.cls-5{fill:#6856fa;}.cls-6{fill:#5c46f9;}.cls-7{font-size:23.86px;}.cls-10,.cls-11,.cls-7,.cls-8,.cls-9{fill:#fff;font-family:Poppins-Medium, Poppins;}.cls-8{font-size:23.86px;}.cls-9{font-size:23.86px;}.cls-10{font-size:23.86px;}.cls-11{font-size:23.86px;}</style></defs><title>Asset 1</title><g id="Layer_2" data-name="Layer 2"><g id="OBJECTS"><path class="cls-1" d="M403.74,466.85a172.86,172.86,0,0,1-79.8,22.9V633.88A315.8,315.8,0,0,0,588.29,481.26L463.47,409.2A172.93,172.93,0,0,1,403.74,466.85Z"/><path class="cls-2" d="M490.29,316.94a172.88,172.88,0,0,1-20.07,80.56L595,469.56a315.79,315.79,0,0,0,0-305.24L470.22,236.38A172.88,172.88,0,0,1,490.29,316.94Z"/><path class="cls-3" d="M403.74,167a172.86,172.86,0,0,1,59.73,57.66l124.81-72.07A315.76,315.76,0,0,0,323.94,0V144.13A172.86,172.86,0,0,1,403.74,167Z"/><path class="cls-4" d="M230.63,167a172.86,172.86,0,0,1,79.8-22.9V0A315.8,315.8,0,0,0,46.08,152.62L170.9,224.69A172.86,172.86,0,0,1,230.63,167Z"/><path class="cls-5" d="M144.08,316.94a172.88,172.88,0,0,1,20.07-80.56L39.33,164.32a315.79,315.79,0,0,0,0,305.24L164.15,397.5A172.88,172.88,0,0,1,144.08,316.94Z"/><path class="cls-6" d="M391.26,560.69l-83-87.38V489.6A171.45,171.45,0,0,1,170.9,409.19L46.08,481.26A315.67,315.67,0,0,0,308.28,633.8v14.26Z"/><text class="cls-7" transform="translate(184.01 124.85) rotate(-28.48)">Test</text><text class="cls-8" transform="translate(89.06 364.17) rotate(-90)">Release</text><text class="cls-9" transform="matrix(0.85, 0.52, -0.52, 0.85, 156.31, 511.16)">Feedback</text><text class="cls-10" transform="matrix(0.84, -0.54, 0.54, 0.84, 430.16, 536.14)">Plan</text><text class="cls-8" transform="translate(557.83 275.64) rotate(90)">Design</text><text class="cls-11" transform="translate(392.23 89.95) rotate(31.09)"><tspan xml:space="preserve"> Develop</tspan></text><path class="cls-6" d="M371.6,378.24c-38.91,0-55.09-27-55.09-53.91,0-27.18,17.67-54.51,55.09-54.51a53.62,53.62,0,0,1,38.17,15.9L396.7,298.34a35.72,35.72,0,0,0-25.1-9.8c-25,0-35.79,18.41-35.79,35.79s9.95,35.49,35.79,35.49c9.06,0,19.31-3.71,26.14-10.54l13.37,13.51C400.42,373.34,386.6,378.24,371.6,378.24Z"/><path class="cls-6" d="M309.49,323.45a65.69,65.69,0,0,1,7-29.85H304.12v37.67h-.56L278,293.6H261.39v58.17h-6.87a11.15,11.15,0,0,1-11.15-11.15V319.93h-20v24a21.67,21.67,0,0,0,21.67,21.66h35.84V327.75h.42l26,37.81h16.3v-1.08C314.52,353.77,309.49,339.24,309.49,323.45Z"/><path class="cls-6" d="M233.48,314a10.31,10.31,0,1,0-10.22-10.31A10.13,10.13,0,0,0,233.48,314Z"/></g></g></svg>