<svg xmlns="http://www.w3.org/2000/svg" width="74.177" height="75" viewBox="0 0 74.177 75">
  <g id="noun_feedback_1831966" transform="translate(-6.6 -6.123)">
    <path id="Path_88" data-name="Path 88" d="M8.735,51.41A2.143,2.143,0,0,0,6.6,53.545V61.99A18.277,18.277,0,0,0,24.86,80.25H51.7l-3.521,3.521a2.126,2.126,0,1,0,2.985,3.011L58.3,79.647a2.1,2.1,0,0,0,0-3L51.166,69.5a2.126,2.126,0,1,0-3,3l3.521,3.521H24.86A14.025,14.025,0,0,1,10.852,62.016v-8.4a2.118,2.118,0,0,0-2.118-2.2Z" transform="translate(0 -6.395)" fill="#5c47f9"/>
    <path id="Path_89" data-name="Path 89" d="M39.449,24.16a2.126,2.126,0,1,0,3-3.011l-3.513-3.512H65.9A14.033,14.033,0,0,1,79.907,31.644v8.445a2.135,2.135,0,0,0,4.252,0V31.644a18.277,18.277,0,0,0-18.243-18.26H38.956l3.521-3.521a2.126,2.126,0,1,0-3-2.994L32.339,14a2.1,2.1,0,0,0,0,3Z" transform="translate(-3.382 0)" fill="#5c47f9"/>
  </g>
</svg>
