<svg xmlns="http://www.w3.org/2000/svg" width="74.923" height="75" viewBox="0 0 74.923 75">
  <g id="noun_test_3437225" transform="translate(-8.1 -7.45)">
    <path id="Path_69" data-name="Path 69" d="M41.3,22.842a2.522,2.522,0,0,0,.614,1.579,2.223,2.223,0,0,0,3.157,0l5-5,5,5a2.114,2.114,0,0,0,1.579.614,2.521,2.521,0,0,0,1.579-.614,2.223,2.223,0,0,0,0-3.157l-5-5,5-5A2.233,2.233,0,1,0,55.07,8.108l-5,5-5-5a2.223,2.223,0,0,0-3.157,0A2.114,2.114,0,0,0,41.3,9.686a2.521,2.521,0,0,0,.614,1.579l5,5-5,5A2.521,2.521,0,0,0,41.3,22.842Z" transform="translate(-3.738 0)" fill="#5c47f9"/>
    <path id="Path_70" data-name="Path 70" d="M89.639,52.063l-5-5,5-5a2.233,2.233,0,0,0-3.157-3.157l-5,5-4.911-5a2.223,2.223,0,0,0-3.157,0,2.114,2.114,0,0,0-.614,1.579,2.522,2.522,0,0,0,.614,1.579l5,5-5,5a2.114,2.114,0,0,0-.614,1.579,2.522,2.522,0,0,0,.614,1.579,2.223,2.223,0,0,0,3.157,0l5-5,5,5a2.114,2.114,0,0,0,1.579.614,2.522,2.522,0,0,0,1.579-.614A2.3,2.3,0,0,0,89.639,52.063Z" transform="translate(-7.285 -3.468)" fill="#5c47f9"/>
    <path id="Path_71" data-name="Path 71" d="M57.646,73.5a1.831,1.831,0,0,0-1.4.7L46.77,84.726,43,80.955a2.091,2.091,0,0,0-2.982,0,2.173,2.173,0,0,0,0,2.982l5.262,5.35a1.924,1.924,0,0,0,1.491.614h0a1.873,1.873,0,0,0,1.491-.7L59.312,77.008a2.1,2.1,0,0,0-.175-2.982A2.063,2.063,0,0,0,57.646,73.5Z" transform="translate(-3.51 -7.451)" fill="#5c47f9"/>
    <path id="Path_72" data-name="Path 72" d="M33.058,74.929a27.739,27.739,0,0,1-9.472-10.174,1.942,1.942,0,1,0-3.42,1.842A31.318,31.318,0,0,0,30.953,78.262a2.335,2.335,0,0,0,1.052.263,2.12,2.12,0,0,0,1.666-.877A1.889,1.889,0,0,0,33.058,74.929Z" transform="translate(-1.454 -6.248)" fill="#5c47f9"/>
    <path id="Path_73" data-name="Path 73" d="M75.493,27.9A1.961,1.961,0,0,0,75.4,25.1l-.175-.175a1.985,1.985,0,1,0-2.719,2.894l.175.175a2.014,2.014,0,0,0,2.807-.088Z" transform="translate(-7.307 -1.939)" fill="#5c47f9"/>
    <path id="Path_74" data-name="Path 74" d="M79.619,35.734a1.652,1.652,0,0,0,.7-.175,2.011,2.011,0,0,0,1.14-2.543.665.665,0,0,0-.175-.351,1.983,1.983,0,0,0-2.719-.7,1.958,1.958,0,0,0-.7,2.631A2.016,2.016,0,0,0,79.619,35.734Z" transform="translate(-7.878 -2.778)" fill="#5c47f9"/>
    <path id="Path_75" data-name="Path 75" d="M68.349,21.985a1.918,1.918,0,0,0-.877-2.631l-.175-.088a1.942,1.942,0,1,0-1.842,3.42l.263.175a1.692,1.692,0,0,0,.877.263A2.016,2.016,0,0,0,68.349,21.985Z" transform="translate(-6.453 -1.423)" fill="#5c47f9"/>
    <path id="Path_76" data-name="Path 76" d="M74,71.411l-.175.175a1.961,1.961,0,0,0,.088,2.807,1.992,1.992,0,0,0,1.4.526,1.745,1.745,0,0,0,1.4-.614l.175-.175A1.985,1.985,0,0,0,74,71.411Z" transform="translate(-7.467 -7.255)" fill="#5c47f9"/>
    <path id="Path_77" data-name="Path 77" d="M81.775,63.466a1.888,1.888,0,0,0-2.631.789l-.175.263a1.918,1.918,0,0,0,.877,2.631,1.692,1.692,0,0,0,.877.263,1.929,1.929,0,0,0,1.754-1.052l.088-.175A2.011,2.011,0,0,0,81.775,63.466Z" transform="translate(-8.016 -6.39)" fill="#5c47f9"/>
    <path id="Path_78" data-name="Path 78" d="M67.248,76.762a2.025,2.025,0,0,0-.965,2.456,1.983,1.983,0,0,0,1.842,1.228,1.652,1.652,0,0,0,.7-.175.665.665,0,0,0,.351-.175,1.983,1.983,0,0,0,.7-2.719A1.954,1.954,0,0,0,67.248,76.762Z" transform="translate(-6.654 -7.819)" fill="#5c47f9"/>
    <path id="Path_79" data-name="Path 79" d="M33.54,19.962l-.175.088a1.977,1.977,0,0,0,.965,3.684,1.768,1.768,0,0,0,.965-.263l.263-.175a1.983,1.983,0,0,0,.7-2.719A2.082,2.082,0,0,0,33.54,19.962Z" transform="translate(-2.784 -1.505)" fill="#5c47f9"/>
    <path id="Path_80" data-name="Path 80" d="M27.031,29.541a2.054,2.054,0,0,0,1.491-.614l.175-.175a1.937,1.937,0,0,0-.175-2.719,2.045,2.045,0,0,0-2.807.175l-.088.088a2.043,2.043,0,0,0,.088,2.807A2.363,2.363,0,0,0,27.031,29.541Z" transform="translate(-1.949 -2.075)" fill="#5c47f9"/>
    <path id="Path_81" data-name="Path 81" d="M20.755,36.857a1.768,1.768,0,0,0,.965.263,1.929,1.929,0,0,0,1.754-1.052l.175-.263a1.961,1.961,0,1,0-3.508-1.754l-.175.175A1.91,1.91,0,0,0,20.755,36.857Z" transform="translate(-1.429 -2.926)" fill="#5c47f9"/>
    <path id="Path_82" data-name="Path 82" d="M26.079,49.246a8.99,8.99,0,1,0-9.034,8.946A8.983,8.983,0,0,0,26.079,49.246Zm-8.946,5a5,5,0,1,1,0-10,5,5,0,0,1,0,10Z" transform="translate(0 -3.697)" fill="#5c47f9"/>
  </g>
</svg>
