<svg xmlns="http://www.w3.org/2000/svg" width="75" height="75" viewBox="0 0 75 75">
  <g id="Group_89" data-name="Group 89" transform="translate(-1677 -425)">
    <g id="setting" transform="translate(1675 423)">
      <path id="Path_62" data-name="Path 62" d="M44.086,77H34.914a2.162,2.162,0,0,1-2.1-1.7l-.993-4.957a31.583,31.583,0,0,1-8.7-3.613l-4.2,2.8a2.143,2.143,0,0,1-2.689-.251L9.749,62.779A2.15,2.15,0,0,1,9.5,60.061l2.786-4.179a31.292,31.292,0,0,1-3.61-8.7l-4.962-.992A2.166,2.166,0,0,1,2,44.086V34.914a2.162,2.162,0,0,1,1.7-2.1l4.967-1a31.319,31.319,0,0,1,3.609-8.7l-2.8-4.189a2.143,2.143,0,0,1,.251-2.691l6.494-6.493a2.149,2.149,0,0,1,2.717-.253l4.179,2.791a31.564,31.564,0,0,1,8.705-3.618l.992-4.95A2.166,2.166,0,0,1,34.914,2h9.171a2.162,2.162,0,0,1,2.1,1.7l.993,4.957a31.374,31.374,0,0,1,8.717,3.62l4.179-2.8a2.143,2.143,0,0,1,2.691.251l6.494,6.493a2.143,2.143,0,0,1,.253,2.717l-2.786,4.188a31.53,31.53,0,0,1,3.613,8.7l4.94.991A2.166,2.166,0,0,1,77,34.914v9.171a2.162,2.162,0,0,1-1.7,2.1l-4.957.994a31.53,31.53,0,0,1-3.613,8.7l2.8,4.2a2.143,2.143,0,0,1-.252,2.689l-6.494,6.494a2.15,2.15,0,0,1-2.717.253l-4.179-2.793a31.373,31.373,0,0,1-8.712,3.62l-.986,4.945A2.166,2.166,0,0,1,44.086,77ZM23.107,64.382a1.057,1.057,0,0,1,.567.163,29.428,29.428,0,0,0,9.305,3.867,1.071,1.071,0,0,1,.814.836l1.122,5.61h9.161l1.134-5.61a1.071,1.071,0,0,1,.815-.836,29.229,29.229,0,0,0,9.3-3.866,1.11,1.11,0,0,1,1.179.014l4.756,3.182,6.48-6.478-3.124-4.687a1.049,1.049,0,0,1-.107-.156,1.071,1.071,0,0,1,.028-1.09A29.4,29.4,0,0,0,68.4,46.025a1.071,1.071,0,0,1,.836-.814l5.616-1.126v-9.17l-5.61-1.125a1.071,1.071,0,0,1-.836-.814,29.4,29.4,0,0,0-3.867-9.305,1.071,1.071,0,0,1-.033-1.09,1.033,1.033,0,0,1,.134-.191l3.094-4.653-6.477-6.482L56.51,14.44a1.108,1.108,0,0,1-1.179.014,29.229,29.229,0,0,0-9.3-3.866,1.071,1.071,0,0,1-.815-.836l-1.129-5.61h-9.17L33.79,9.753a1.071,1.071,0,0,1-.814.836,29.428,29.428,0,0,0-9.305,3.867,1.071,1.071,0,0,1-1.168-.014l-4.768-3.182-6.481,6.477L14.441,22.5a1.071,1.071,0,0,1,.014,1.168,29.224,29.224,0,0,0-3.857,9.3,1.071,1.071,0,0,1-.9.829L4.143,34.915v9.17l5.592,1.121a1.08,1.08,0,0,1,.865.822,29.226,29.226,0,0,0,3.857,9.3,1.071,1.071,0,0,1-.013,1.167l-3.171,4.767,6.466,6.483,4.688-3.126a1.087,1.087,0,0,1,.679-.239Z" transform="translate(0 0)" fill="#5c47f9"/>
      <path id="Path_63" data-name="Path 63" d="M45.9,56.194a1.072,1.072,0,0,1-.467-2.037,17.681,17.681,0,0,0,2.638-1.567,1.072,1.072,0,0,1,1.252,1.739,19.955,19.955,0,0,1-2.957,1.756A1.072,1.072,0,0,1,45.9,56.194Z" transform="translate(3.058 3.599)" fill="#5c47f9"/>
      <path id="Path_64" data-name="Path 64" d="M38.492,60.983A22.492,22.492,0,1,1,60.983,38.492c0,.376-.012.74-.034,1.116a1.088,1.088,0,0,1-1.135,1,1.071,1.071,0,0,1-1-1.135c.02-.331.03-.652.03-.983a20.35,20.35,0,1,0-20.35,20.35q.482,0,.964-.03a1.073,1.073,0,1,1,.134,2.142C39.222,60.972,38.857,60.983,38.492,60.983Z" transform="translate(1.008 1.008)" fill="#5c47f9"/>
      <path id="Path_65" data-name="Path 65" d="M53.461,49.771a1.072,1.072,0,0,1-.869-1.7,18.236,18.236,0,0,0,1.572-2.624,1.072,1.072,0,1,1,1.922.95,20.342,20.342,0,0,1-1.755,2.928A1.072,1.072,0,0,1,53.461,49.771Z" transform="translate(3.598 3.059)" fill="#5c47f9"/>
      <path id="Path_66" data-name="Path 66" d="M42.844,42.868a1.072,1.072,0,0,1-.695-1.888l4.243-3.611-4.243-3.611a1.073,1.073,0,0,1,1.394-1.633l5.2,4.426a1.072,1.072,0,0,1,0,1.634l-5.2,4.426A1.072,1.072,0,0,1,42.844,42.868Z" transform="translate(2.838 2.13)" fill="#5c47f9"/>
      <path id="Path_67" data-name="Path 67" d="M31.65,42.868a1.072,1.072,0,0,1-.7-.255l-5.2-4.426a1.072,1.072,0,0,1,0-1.634l5.2-4.426a1.073,1.073,0,0,1,1.394,1.633L28.1,37.37l4.243,3.611a1.072,1.072,0,0,1-.695,1.888Z" transform="translate(1.668 2.13)" fill="#5c47f9"/>
      <path id="Path_68" data-name="Path 68" d="M33.7,48.538a1.085,1.085,0,0,1-.373-.068,1.072,1.072,0,0,1-.632-1.378l7.227-19.478a1.073,1.073,0,1,1,2.01.75L34.707,47.838A1.072,1.072,0,0,1,33.7,48.538Z" transform="translate(2.185 1.774)" fill="#5c47f9"/>
    </g>
  </g>
</svg>
