<svg xmlns="http://www.w3.org/2000/svg" width="58.276" height="75" viewBox="0 0 58.276 75">
  <g id="strategy" transform="translate(-54.288)">
    <g id="Group_86" data-name="Group 86" transform="translate(54.288)">
      <path id="Path_50" data-name="Path 50" d="M335.178,14.643a7.322,7.322,0,1,0-7.29-7.322A7.312,7.312,0,0,0,335.178,14.643Zm0-10.857a3.551,3.551,0,1,1-3.519,3.535A3.541,3.541,0,0,1,335.178,3.787Z" transform="translate(-286.066)" fill="#5c47f9"/>
      <path id="Path_51" data-name="Path 51" d="M61.578,393.7a7.322,7.322,0,1,0,7.29,7.322A7.312,7.312,0,0,0,61.578,393.7Zm0,10.872a3.551,3.551,0,1,1,3.519-3.551A3.541,3.541,0,0,1,61.578,404.573Z" transform="translate(-54.288 -333.343)" fill="#5c47f9"/>
      <path id="Path_52" data-name="Path 52" d="M155.944,132.727a1.892,1.892,0,0,0,1.335.55,1.919,1.919,0,0,0,1.335-.55,1.887,1.887,0,0,0,0-2.671l-3.928-3.928,3.928-3.928a1.889,1.889,0,0,0-2.671-2.671l-3.928,3.928-3.928-3.928a1.889,1.889,0,0,0-2.671,2.671l3.928,3.928-3.928,3.928a1.885,1.885,0,0,0,1.335,3.221,1.919,1.919,0,0,0,1.336-.55l3.928-3.928Z" transform="translate(-131 -100.733)" fill="#5c47f9"/>
      <path id="Path_53" data-name="Path 53" d="M342.515,312.029a1.887,1.887,0,0,0-2.671,0l-3.928,3.928-3.928-3.928a1.889,1.889,0,0,0-2.671,2.671l3.928,3.928-3.928,3.928a1.885,1.885,0,0,0,1.335,3.221,1.919,1.919,0,0,0,1.336-.55l3.928-3.928,3.928,3.928a1.891,1.891,0,0,0,1.335.55,1.919,1.919,0,0,0,1.336-.55,1.887,1.887,0,0,0,0-2.671l-3.928-3.928,3.928-3.928A1.887,1.887,0,0,0,342.515,312.029Z" transform="translate(-286.804 -263.717)" fill="#5c47f9"/>
      <path id="Path_54" data-name="Path 54" d="M200.315,373.929a1.887,1.887,0,0,0-2.671,0l-3.928,3.928-3.928-3.928a1.889,1.889,0,0,0-2.671,2.671l3.928,3.928-3.928,3.928a1.885,1.885,0,0,0,1.335,3.221,1.919,1.919,0,0,0,1.336-.55l3.928-3.928,3.928,3.928a1.892,1.892,0,0,0,1.335.55,1.919,1.919,0,0,0,1.335-.55,1.887,1.887,0,0,0,0-2.671l-3.928-3.928,3.928-3.928A1.916,1.916,0,0,0,200.315,373.929Z" transform="translate(-166.317 -316.212)" fill="#5c47f9"/>
      <path id="Path_55" data-name="Path 55" d="M186.273,266.471a1.885,1.885,0,1,0-1.885-1.885A1.891,1.891,0,0,0,186.273,266.471Z" transform="translate(-164.375 -222.277)" fill="#5c47f9"/>
      <path id="Path_56" data-name="Path 56" d="M102.914,303.593a1.91,1.91,0,0,0,1.037.314,1.887,1.887,0,1,0-1.037-.314Z" transform="translate(-94.555 -253.958)" fill="#5c47f9"/>
      <path id="Path_57" data-name="Path 57" d="M138.965,269.918a1.879,1.879,0,0,0,.77,3.6,1.929,1.929,0,0,0,.77-.157,1.875,1.875,0,0,0,.958-2.482A1.9,1.9,0,0,0,138.965,269.918Z" transform="translate(-124.989 -228.245)" fill="#5c47f9"/>
      <circle id="Ellipse_165" data-name="Ellipse 165" cx="1.885" cy="1.885" r="1.885" transform="translate(27.32 40.423)" fill="#5c47f9"/>
      <path id="Path_58" data-name="Path 58" d="M90.573,348.771a1.877,1.877,0,1,0-1.335-.55A1.9,1.9,0,0,0,90.573,348.771Z" transform="translate(-83.283 -291.913)" fill="#5c47f9"/>
      <path id="Path_59" data-name="Path 59" d="M302.824,128.119l-7.29-7.29a1.887,1.887,0,0,0-2.671,0l-7.29,7.29a1.889,1.889,0,0,0,2.671,2.671l4.069-4.069v4.871a11.1,11.1,0,0,1-11.14,11.045,1.885,1.885,0,0,0,0,3.771,14.883,14.883,0,0,0,14.91-14.816v-4.886l4.069,4.069a1.892,1.892,0,0,0,1.336.55,1.919,1.919,0,0,0,1.336-.55A1.868,1.868,0,0,0,302.824,128.119Z" transform="translate(-245.102 -101.941)" fill="#5c47f9"/>
    </g>
  </g>
</svg>
