<?xml version="1.0" encoding="utf-8"?>
<svg xmlns="http://www.w3.org/2000/svg" width="67.525" height="38.972" viewBox="0 0 67.525 38.972">
  <g id="Group_46" data-name="Group 46" transform="translate(-295.644 -213.702)">
    <g id="Group_44" data-name="Group 44" transform="translate(329.163 213.702)">
      <path id="Path_43" data-name="Path 43" d="M357.677,252.674c-13.987,0-19.806-9.717-19.806-19.379,0-9.77,6.353-19.593,19.806-19.593a19.282,19.282,0,0,1,13.72,5.712l-4.7,4.538a12.838,12.838,0,0,0-9.022-3.524c-8.969,0-12.866,6.62-12.866,12.866,0,6.193,3.578,12.759,12.866,12.759a13.758,13.758,0,0,0,9.4-3.79l4.8,4.858A19.7,19.7,0,0,1,357.677,252.674Z" transform="translate(-337.871 -213.702)" fill="#fff"/>
    </g>
    <g id="Group_45" data-name="Group 45" transform="translate(295.644 222.16)">
      <path id="Path_44" data-name="Path 44" d="M326.654,235.2a23.627,23.627,0,0,1,2.5-10.73h-4.434v13.539h-.2l-9.2-13.539h-5.96v20.91H306.9a4.008,4.008,0,0,1-4.008-4.008v-7.439h-7.171v8.616a7.787,7.787,0,0,0,7.788,7.787h12.884V236.746h.152l9.346,13.589h5.86v-.388A22.609,22.609,0,0,1,326.654,235.2Z" transform="translate(-295.659 -224.381)" fill="#fff"/>
      <path id="Path_45" data-name="Path 45" d="M299.319,231.769a3.705,3.705,0,1,0-3.675-3.705A3.641,3.641,0,0,0,299.319,231.769Z" transform="translate(-295.644 -224.358)" fill="#fff"/>
    </g>
  </g>
</svg>

